<?xml version="1.0" standalone="no"?>
<!DOCTYPE svg PUBLIC "-//W3C//DTD SVG 20010904//EN"
 "http://www.w3.org/TR/2001/REC-SVG-20010904/DTD/svg10.dtd">
<svg version="1.0" xmlns="http://www.w3.org/2000/svg"
 width="1019.000000pt" height="404.000000pt" viewBox="0 0 1019.000000 404.000000"
 preserveAspectRatio="xMidYMid meet">

<g transform="translate(0.000000,404.000000) scale(0.100000,-0.100000)"
fill="#000000" stroke="none">
<path d="M1361 3949 c-5 -13 -25 -62 -45 -107 -20 -46 -36 -87 -36 -92 0 -4
23 -10 51 -12 28 -3 63 -14 77 -25 32 -23 72 -97 72 -133 0 -36 -40 -110 -72
-133 -14 -11 -49 -22 -77 -25 l-51 -5 0 37 c0 62 -57 102 -115 80 -18 -7 -45
-55 -45 -79 0 -27 55 -75 86 -75 l27 0 -24 -26 c-34 -37 -72 -54 -119 -54 -54
0 -113 31 -139 73 -22 37 -28 107 -12 150 l9 24 -137 12 c-75 6 -145 11 -154
11 -21 0 -21 -12 -6 -182 l12 -126 24 9 c96 36 206 -28 220 -129 7 -55 -2 -85
-38 -127 -37 -41 -48 -44 -42 -10 4 18 -3 33 -25 55 -34 34 -50 37 -91 15 -46
-24 -55 -74 -20 -119 16 -20 29 -26 61 -26 l41 0 -5 -51 c-6 -62 -30 -97 -89
-127 -104 -54 -229 19 -229 134 0 24 -3 44 -6 44 -10 0 -225 -92 -222 -95 2
-1 142 -91 312 -200 l309 -197 453 453 c377 377 451 456 443 470 -5 10 -94
151 -199 315 -171 267 -190 294 -199 273z"/>
<path d="M525 3685 c-70 -69 31 -182 103 -115 28 27 37 62 21 92 -28 53 -84
64 -124 23z"/>
<path d="M1406 2799 l-406 -401 0 -669 0 -669 613 0 612 1 275 265 c151 146
277 269 278 274 2 6 -190 10 -527 10 l-531 0 0 135 0 135 450 0 450 0 0 265 0
265 -450 0 -450 0 0 120 0 120 513 2 512 3 3 273 2 272 -469 0 -470 0 -405
-401z"/>
<path d="M3060 2130 l0 -1070 553 1 552 0 293 277 294 277 -481 3 -481 2 0
790 0 790 -365 0 -365 0 0 -1070z"/>
<path d="M4950 2129 c0 -837 3 -1069 12 -1063 7 4 171 131 365 282 l353 273 0
790 0 789 -365 0 -365 0 0 -1071z"/>
<path d="M5860 2920 l0 -280 315 0 315 0 2 -789 3 -789 357 277 358 276 0 513
0 512 315 0 315 0 0 280 0 280 -990 0 -990 0 0 -280z"/>
<path d="M8020 2130 l0 -1070 573 0 573 0 314 266 c173 146 317 270 318 275 2
5 -218 9 -527 9 l-531 0 0 135 0 135 450 0 450 0 0 265 0 265 -450 0 -450 0 0
120 0 120 513 2 512 3 3 273 2 272 -875 0 -875 0 0 -1070z"/>
<path d="M1005 728 c-3 -7 -4 -155 -3 -328 l3 -315 235 0 235 0 0 40 0 40
-187 3 -188 2 0 100 0 100 163 2 162 3 0 40 0 40 -162 3 -163 2 0 95 0 95 183
2 182 3 0 40 0 40 -228 3 c-177 2 -229 0 -232 -10z"/>
<path d="M1583 725 c4 -8 54 -80 112 -160 l107 -145 -121 -165 c-67 -91 -121
-168 -121 -171 0 -3 23 -4 52 -2 l52 3 93 130 c52 71 95 131 97 133 2 2 48
-58 103 -132 l98 -136 48 0 c26 0 47 4 47 9 0 4 -52 79 -115 166 -63 86 -115
162 -115 167 0 6 47 75 105 153 58 79 105 148 105 154 0 6 -19 11 -43 11 l-44
0 -89 -125 c-49 -68 -91 -124 -94 -124 -3 0 -45 56 -94 124 l-90 125 -49 0
c-39 0 -48 -3 -44 -15z"/>
<path d="M2270 410 l0 -330 235 0 235 0 0 45 0 45 -190 0 -190 0 0 100 0 100
163 2 162 3 0 40 0 40 -162 3 -163 2 0 95 0 95 183 2 182 3 0 40 0 40 -227 3
-228 2 0 -330z"/>
<path d="M3100 731 c-92 -28 -169 -94 -209 -180 -22 -47 -26 -70 -26 -141 0
-71 4 -94 26 -140 34 -71 89 -126 158 -159 49 -23 69 -26 156 -26 89 0 106 3
156 27 31 16 64 37 74 48 18 20 18 21 -9 49 l-27 29 -50 -34 c-112 -75 -272
-48 -349 58 -60 83 -60 214 0 297 78 107 241 132 355 55 l38 -25 29 28 29 28
-33 28 c-53 44 -128 67 -216 66 -42 0 -88 -4 -102 -8z"/>
<path d="M3691 727 c-50 -16 -107 -75 -120 -125 -17 -61 -5 -110 38 -153 36
-36 76 -52 250 -99 53 -14 101 -59 101 -93 0 -34 -34 -73 -76 -87 -62 -21
-172 -9 -243 26 l-62 31 -14 -28 c-8 -15 -15 -32 -15 -38 0 -5 30 -24 66 -42
110 -55 271 -53 354 3 59 40 75 72 75 144 0 64 -1 66 -41 104 -41 38 -61 46
-235 94 -77 22 -109 48 -109 92 0 48 15 73 55 90 50 21 155 18 217 -6 29 -11
56 -20 60 -20 3 0 11 15 17 32 10 28 9 35 -6 46 -52 38 -231 55 -312 29z"/>
<path d="M4650 723 c-139 -48 -220 -164 -220 -313 0 -94 28 -167 88 -228 64
-65 128 -94 224 -100 97 -6 159 9 226 55 l53 36 -30 30 -30 30 -38 -26 c-145
-99 -350 -28 -394 137 -23 84 6 191 68 247 53 50 92 64 179 64 74 0 85 -3 134
-33 l53 -33 29 28 29 28 -33 28 c-76 63 -233 87 -338 50z"/>
<path d="M5330 724 c-147 -53 -226 -174 -218 -332 6 -129 70 -226 187 -281 48
-22 69 -26 151 -26 119 0 175 20 246 87 73 69 99 130 99 238 0 71 -4 94 -26
141 -34 71 -87 125 -158 158 -71 33 -210 40 -281 15z m258 -101 c31 -19 58
-47 80 -83 29 -48 32 -62 32 -130 0 -65 -4 -82 -30 -127 -108 -188 -404 -149
-461 61 -29 107 23 235 116 283 52 27 78 33 148 29 53 -3 77 -9 115 -33z"/>
<path d="M6007 418 c-81 -178 -147 -327 -147 -332 0 -4 21 -6 47 -4 l46 3 36
83 35 82 174 -2 173 -3 36 -83 35 -82 43 0 c23 0 44 2 47 6 3 3 -60 150 -141
327 l-147 322 -45 3 -46 3 -146 -323z m258 68 c36 -82 65 -152 65 -157 0 -5
-61 -9 -136 -9 -113 0 -135 2 -131 14 18 47 132 304 134 302 2 -1 32 -69 68
-150z"/>
<path d="M6803 719 c-75 -29 -144 -95 -178 -171 -74 -164 -5 -357 153 -435 51
-25 67 -28 162 -28 94 0 110 3 155 26 28 15 59 36 69 48 19 21 19 22 -9 51
-28 30 -29 30 -49 11 -46 -41 -89 -56 -166 -56 -89 0 -139 22 -192 85 -78 91
-79 235 -1 321 89 99 240 117 340 43 40 -30 44 -30 74 2 l24 26 -37 33 c-20
19 -59 41 -89 49 -74 22 -191 20 -256 -5z"/>
<path d="M7345 728 c-3 -7 -4 -155 -3 -328 l3 -315 45 0 45 0 3 143 3 142 184
0 185 0 0 -145 0 -145 45 0 45 0 0 330 0 330 -45 0 -45 0 0 -140 0 -140 -185
0 -184 0 -3 138 -3 137 -43 3 c-28 2 -44 -1 -47 -10z"/>
<path d="M8120 410 l0 -330 45 0 45 0 0 330 0 330 -45 0 -45 0 0 -330z"/>
<path d="M8430 410 l0 -330 45 0 45 0 0 240 c0 132 3 240 8 240 4 -1 59 -66
122 -147 244 -309 266 -333 305 -333 l35 0 0 330 0 330 -45 0 -45 0 -2 -242
-3 -243 -174 215 c-232 288 -215 270 -256 270 l-35 0 0 -330z"/>
<path d="M9373 721 c-223 -77 -290 -360 -128 -539 103 -114 329 -136 468 -46
l38 25 -3 127 -3 127 -42 3 -43 3 0 -111 0 -111 -37 -17 c-57 -25 -186 -22
-239 6 -141 73 -180 269 -77 383 90 99 241 117 354 42 l40 -26 27 27 27 27
-37 33 c-21 18 -61 40 -89 49 -68 22 -189 22 -256 -2z"/>
</g>
</svg>
