<?xml version="1.0" encoding="utf-8"?>
<!-- Generator: Adobe Illustrator 26.0.2, SVG Export Plug-In . SVG Version: 6.00 Build 0)  -->
<svg version="1.1" id="Layer_1" xmlns="http://www.w3.org/2000/svg" xmlns:xlink="http://www.w3.org/1999/xlink" x="0px" y="0px"
	 viewBox="0 0 700 700" style="enable-background:new 0 0 700 700;" xml:space="preserve">
<style type="text/css">
	.st0{fill-rule:evenodd;clip-rule:evenodd;}
</style>
<g>
	<path class="st0" d="M520.7,191.4c0,94.2-76.4,170.7-170.7,170.7s-170.7-76.4-170.7-170.7c0-94.2,76.4-170.7,170.7-170.7
		S520.7,97.1,520.7,191.4"/>
	<path class="st0" d="M469,344.7c-32.8,25.5-74.1,40.7-118.8,40.7c-44.7,0-85.9-15.2-118.8-40.6C123.9,385.9,42.9,481.3,21.9,597.2
		c0,0.1,0,0.2,0,0.3c-3.4,20.3,2.3,41.2,15.6,56.9c13.3,15.8,32.9,24.8,53.5,24.8l518.9-0.6c20.3,0,39.7-9,52.9-24.6
		c13.2-15.6,18.9-36.3,15.4-56.4c0-0.1,0-0.1,0-0.2C657.5,481.3,576.7,385.9,469,344.7L469,344.7z"/>
</g>
</svg>
